# Blender 4.2.2 LTS
# www.blender.org
mtllib koivu.mtl
o prop_koivu
v 3.899552 -0.939523 -1.042963
v 3.943620 1.060477 -0.953561
v 4.765577 -0.939523 -0.542963
v 4.759161 1.060477 -0.506251
v 4.765577 -0.939523 0.457037
v 4.757644 1.060477 0.453511
v 3.910378 -0.939523 1.135179
v 3.929270 1.060477 0.932883
v 3.033526 -0.939523 0.457037
v 3.109804 1.060477 0.453535
v 2.623401 -0.939523 -0.647045
v 3.093636 1.060477 -0.507433
v 4.486048 2.310453 -0.294405
v 3.730776 2.310453 -0.711841
v 4.490518 2.310453 0.600800
v 3.695998 2.310454 1.066767
v 2.989860 2.310453 0.600126
v 2.939584 2.310453 -0.286781
v 4.815548 3.685682 -0.075694
v 4.804046 3.685682 0.727514
v 4.118061 3.685682 1.135205
v 3.409821 3.685682 0.741334
v 3.390907 3.685682 -0.075478
v 4.970510 5.036904 -0.083335
v 4.373306 5.036904 -0.401863
v 4.968633 5.036904 0.615743
v 4.362650 5.036904 0.970500
v 3.712165 5.036904 -0.108501
v 4.523741 6.384130 -0.382001
v 5.068341 6.384130 0.515943
v 4.520932 6.384130 0.818278
v 4.016396 6.384130 0.505902
v 3.966377 6.384130 -0.120553
v 5.170295 7.663409 0.109990
v 4.754662 7.663409 -0.152121
v 5.161611 7.663409 0.592882
v 4.749146 7.663409 0.838712
v 4.326830 7.663409 0.597244
v 4.300202 7.663409 0.081907
v 4.950933 9.007717 0.034174
v 4.604541 9.007717 -0.181368
v 4.969077 9.007717 0.436759
v 4.260983 9.007717 0.433776
v 4.210088 9.007717 -0.014585
v 4.902638 10.690149 0.069138
v 4.589566 10.690149 -0.099373
v 4.929028 10.690149 0.435117
v 4.589216 10.690149 0.611914
v 4.259892 10.690149 0.433288
v 4.854839 12.314995 0.239795
v 4.603403 12.314995 0.094628
v 4.854839 12.314995 0.530129
v 4.603403 12.314995 0.675296
v 4.351966 12.314995 0.530129
v 4.351966 12.314995 0.239795
v 4.485911 14.426241 0.042938
v 4.444101 14.426241 0.018799
v 4.485911 14.426241 0.091216
v 4.444101 14.426241 0.115355
v 4.402291 14.426241 0.091216
v 4.402291 14.426241 0.042938
v 4.761117 0.450812 -0.517442
v 4.278258 -0.939523 -0.824317
v 4.765577 -0.939523 -0.124101
v 4.416151 -0.122237 -0.728188
v 3.033526 -0.939523 0.154761
v 3.917601 -0.120377 -1.006346
v 3.075216 0.447602 -0.518321
v 3.479038 -0.154569 -0.755105
v 4.557686 -0.935666 -0.985629
v 5.045006 -0.935666 -0.704275
v 5.042545 -0.168771 -0.690198
v 5.045006 -0.935666 -0.285413
v 4.629874 -0.507811 -0.935305
v 3.841623 -0.939523 -0.019171
v 3.792455 5.200377 0.605167
v 3.745665 5.032545 0.425922
v 3.716125 4.859227 0.634672
v 3.945355 5.032545 0.729905
v 4.168077 3.998502 -0.473675
v 4.494430 3.648106 -0.279153
v 3.866982 3.648106 -0.367116
v 4.048716 3.448384 -0.519480
v 5.053593 6.377422 0.041690
v 5.065193 6.556335 -0.066954
v 5.041455 6.273562 -0.094162
v 4.924026 6.377422 -0.164993
v 4.618217 8.927895 0.667136
v 4.416680 8.998877 0.540495
v 4.735462 8.998877 0.587158
v 4.609097 9.161777 0.653945
v 4.383704 10.684164 -0.013829
v 4.245701 10.622261 0.046478
v 4.247723 10.684164 0.148479
v 4.255263 10.819870 0.064566
v 3.256807 4.927033 1.079774
v 3.148629 5.045776 0.991521
v 3.115524 4.927033 0.864703
v 3.106647 4.850469 1.008210
v 2.609963 5.038789 0.975400
v 2.501785 5.157532 0.887147
v 2.468680 5.038789 0.760329
v 2.459802 4.962225 0.903836
v 1.866233 5.231462 1.377793
v 1.816554 5.285992 1.337264
v 1.801352 5.231462 1.279026
v 1.797275 5.196301 1.344928
v 3.985731 3.672738 -0.549135
v 4.101388 3.555261 -0.543204
v 4.393006 3.672738 -0.549135
v 4.181171 3.900180 -0.549135
v 3.985731 3.672738 -1.052813
v 4.114557 3.581980 -1.052813
v 4.393006 3.672738 -1.052813
v 4.181171 3.900179 -1.052813
v 4.001421 3.605026 -1.739196
v 4.058382 3.564896 -1.739196
v 4.181499 3.605026 -1.739196
v 4.087836 3.705589 -1.739196
v 4.300104 3.603640 -2.164001
v 4.328474 3.583653 -2.164001
v 4.389794 3.603640 -2.164001
v 4.343143 3.653727 -2.164001
v 5.195769 6.304838 -0.190359
v 5.207268 6.379098 -0.061652
v 5.218258 6.507022 -0.164582
v 5.084515 6.379098 -0.257465
v 5.714589 5.976723 -0.364945
v 5.726088 6.050983 -0.236237
v 5.737078 6.178908 -0.339167
v 5.603334 6.050983 -0.432050
v 6.171477 5.808415 -0.272821
v 6.178742 5.855329 -0.191510
v 6.185685 5.936145 -0.256536
v 6.101192 5.855329 -0.315215
v 6.333601 5.761661 -0.528561
v 6.337912 5.789499 -0.480312
v 6.342031 5.837455 -0.518898
v 6.291894 5.789499 -0.553718
v 4.618217 8.927895 0.667136
v 4.416680 8.998877 0.540495
v 4.609097 9.161777 0.653945
v 4.735462 8.998877 0.587158
v 4.654373 8.922430 0.970087
v 4.472323 8.986549 0.855691
v 4.646136 9.133699 0.958172
v 4.760282 8.986549 0.897842
v 4.893680 8.938784 1.165174
v 4.763186 8.984743 1.165174
v 4.887775 9.090221 1.165174
v 4.969595 8.984743 1.165174
v 4.810002 8.805576 1.444668
v 4.694786 8.846155 1.444668
v 4.804789 8.939283 1.444668
v 4.877029 8.846155 1.444668
v 5.094960 9.094179 2.195976
v 5.042590 9.112625 2.195976
v 5.092590 9.154955 2.195976
v 5.125426 9.112625 2.195976
v 3.815454 10.656872 -0.139586
v 3.932283 10.709276 -0.190640
v 3.823548 10.824162 -0.124274
v 3.817165 10.709276 -0.053235
v 3.535859 10.608854 -0.807092
v 3.643669 10.657213 -0.854205
v 3.543329 10.763229 -0.792962
v 3.537438 10.657213 -0.727407
v 3.092504 10.380463 -0.953629
v 3.155153 10.408566 -0.981006
v 3.096845 10.470171 -0.945418
v 3.093422 10.408566 -0.907324
vn 0.0621 0.0903 -0.9940
vn -0.0054 0.0435 -0.9990
vn 0.4884 0.0251 -0.8722
vn 0.4927 0.0236 -0.8699
vn 0.0069 -1.0000 -0.0040
vn 0.0017 -1.0000 -0.0030
vn 0.0069 -0.9999 -0.0120
vn 0.0104 -0.9999 -0.0060
vn 0.8847 0.0251 0.4656
vn 0.8875 0.0800 0.4538
vn 0.0275 -0.0152 0.9995
vn -0.0016 0.0586 0.9983
vn -0.8748 -0.0553 0.4814
vn -0.8852 0.0530 0.4621
vn -0.0882 -0.0679 0.9938
vn -0.8745 0.0373 0.4836
vn -0.9785 0.1157 0.1710
vn -0.2878 0.1844 -0.9398
vn -0.8566 0.0905 -0.5080
vn -0.3943 0.1131 -0.9120
vn -0.0000 -1.0000 -0.0000
vn -0.8774 0.1482 -0.4563
vn -0.8542 0.2344 0.4641
vn -0.7923 0.2622 -0.5509
vn 0.8522 0.1352 -0.5054
vn 0.8392 0.0878 -0.5367
vn 0.8449 -0.0696 0.5304
vn -0.8442 0.0209 -0.5356
vn 0.0320 0.1155 -0.9928
vn -0.0568 0.1865 -0.9808
vn 0.8935 0.0484 -0.4465
vn 0.8621 0.0423 0.5050
vn 0.8773 -0.0635 0.4757
vn 0.8485 -0.1449 0.5089
vn 0.0240 0.0203 0.9995
vn 0.8743 -0.1178 -0.4709
vn -0.9012 0.1936 -0.3877
vn -0.9722 0.2246 0.0663
vn -0.8370 0.2027 0.5082
vn -0.8470 0.1890 0.4969
vn 0.0132 0.1156 0.9932
vn 0.8573 -0.0822 -0.5081
vn 0.8659 -0.0427 0.4985
vn 0.5070 -0.0179 -0.8618
vn -0.0487 0.0864 -0.9951
vn -0.0335 0.0410 -0.9986
vn 0.0250 0.1000 -0.9947
vn -0.8325 0.2122 -0.5118
vn -0.8634 0.1124 -0.4918
vn 0.1042 0.0727 -0.9919
vn -0.0224 0.0515 0.9984
vn -0.5948 0.1760 -0.7844
vn 0.0163 -0.9975 -0.0681
vn -0.1438 -0.9286 0.3420
vn -0.2778 -0.1811 -0.9434
vn -0.8184 0.0958 0.5665
vn -0.8074 0.0048 0.5900
vn -0.8964 -0.0283 -0.4424
vn 0.0414 0.0594 0.9974
vn 0.9968 -0.0724 -0.0325
vn 0.8460 0.0060 -0.5332
vn -0.4126 -0.0331 -0.9103
vn 0.2090 0.9768 0.0479
vn 0.3420 0.9322 -0.1182
vn -0.3566 -0.0154 -0.9341
vn -0.4574 0.5301 0.7140
vn 0.0193 0.6432 0.7655
vn -0.1112 -0.0135 0.9937
vn 0.8778 0.1095 0.4663
vn 0.0452 0.0091 -0.9989
vn 0.8493 0.0715 -0.5230
vn 0.8746 0.0143 0.4847
vn 0.8486 0.1232 0.5144
vn 0.0085 0.1070 0.9942
vn 0.8449 0.0601 -0.5316
vn -0.0000 1.0000 -0.0000
vn 0.0487 0.0875 -0.9950
vn 0.0092 0.0445 -0.9990
vn -0.8769 0.0374 -0.4793
vn -0.6815 0.5991 -0.4203
vn -0.0189 0.5958 -0.8029
vn 0.8728 0.0960 -0.4785
vn -0.3961 0.0841 -0.9144
vn -0.8533 0.1166 -0.5082
vn -0.9133 0.0151 0.4070
vn -0.8424 0.0722 0.5340
vn -0.0564 -0.9969 -0.0550
vn -0.4263 -0.1643 0.8895
vn -0.6500 -0.1690 0.7409
vn -0.3046 -0.9350 0.1816
vn 0.6396 0.6452 -0.4180
vn -0.6764 0.6524 0.3418
vn -0.0187 0.7047 0.7093
vn 0.6288 0.7010 0.3365
vn 0.8637 0.0120 -0.5039
vn 0.8509 0.4211 -0.3142
vn 0.8697 0.1737 0.4621
vn 0.6304 0.6227 -0.4635
vn 0.6856 0.2545 0.6820
vn 1.0000 0.0036 0.0009
vn 0.8786 0.0152 -0.4773
vn -0.8642 0.2405 0.4420
vn -0.0528 0.1254 -0.9907
vn 0.0194 0.1806 -0.9834
vn -0.0620 0.3499 -0.9347
vn -0.4934 0.1833 -0.8503
vn 0.0035 -1.0000 -0.0000
vn 0.0138 -0.9999 -0.0000
vn -0.4962 0.1860 0.8480
vn -0.8188 0.2582 0.5127
vn 0.4798 0.0267 -0.8770
vn 0.8530 -0.0551 -0.5190
vn 0.8514 -0.1035 -0.5141
vn -0.2400 -0.6094 -0.7557
vn -0.1030 -0.8915 -0.4412
vn 0.9272 -0.1764 -0.3304
vn -0.8607 0.0361 -0.5078
vn -0.9987 0.0382 0.0337
vn -0.4862 0.2163 -0.8466
vn 0.0338 0.1448 -0.9889
vn 0.4209 0.5963 0.6835
vn -0.0092 0.7255 0.6881
vn 0.2774 -0.1159 0.9537
vn 0.0065 0.0655 0.9978
vn -0.2267 -0.9738 0.0163
vn 0.4170 0.1361 0.8987
vn -0.1682 0.9794 0.1116
vn -0.0330 0.9649 0.2605
vn -0.2344 -0.0892 -0.9680
vn -0.7063 -0.5600 0.4330
vn -0.8765 0.0884 -0.4732
vn 0.1567 0.9665 -0.2032
vn 0.0725 0.0675 0.9951
vn -0.4221 0.8667 0.2659
vn -0.8956 0.0595 -0.4408
vn 0.0341 0.9290 -0.3686
vn 0.0049 0.9913 -0.1314
vn -0.9969 -0.0772 -0.0178
vn -0.7361 0.1397 -0.6623
vn 0.0369 0.8006 -0.5981
vn 0.9687 -0.2067 -0.1375
vn -0.1485 -0.9889 0.0039
vn -0.2284 -0.9694 -0.0899
vn 0.9325 -0.3422 0.1153
vn -0.9534 -0.1369 -0.2690
vn -0.6016 -0.1104 -0.7911
vn 0.0107 -0.7770 -0.6294
vn -0.1568 0.9533 -0.2582
vn 0.8984 -0.1912 -0.3953
vn 0.2005 0.8076 -0.5546
vn 0.5021 -0.1411 0.8532
vn -0.3052 -0.9424 0.1369
vn -0.3517 -0.9334 -0.0711
vn -0.0399 -0.2291 0.9726
vn 0.6028 -0.1965 0.7733
vn 0.0878 -0.9947 -0.0544
vn -0.3018 -0.3504 -0.8866
vn -0.2221 -0.3057 -0.9258
vn -0.0870 -0.9605 0.2645
vn 0.5209 0.8176 -0.2455
vn 0.5184 0.8418 0.1505
vn 0.6035 0.6668 -0.4372
vn -0.2408 -0.2396 -0.9405
vn 0.3186 -0.2585 0.9120
vn 0.4662 -0.8050 -0.3670
vn 0.9057 -0.3384 0.2554
vn 0.9936 -0.0775 -0.0825
vn -0.0133 0.9955 0.0935
vn -0.0976 0.9531 0.2865
vn 0.8993 -0.2345 -0.3691
vn -0.9210 -0.2075 0.3298
vn -0.8742 -0.1302 0.4677
vn 0.2755 0.9518 0.1347
vn -0.9833 -0.0618 0.1712
vn 0.0502 -0.9985 -0.0240
vn -0.0992 -0.9813 0.1652
vn 0.1954 -0.9403 -0.2788
vn 0.9900 -0.0512 -0.1318
vn 0.9129 -0.4058 -0.0435
vn 0.0217 -0.9992 -0.0337
vn -0.0559 0.9882 0.1424
vn -0.9492 -0.3112 0.0463
vn -0.7061 0.0121 0.7080
vn 0.2008 0.8735 0.4435
vn 0.1494 -0.6719 0.7254
vn 0.8900 -0.0293 0.4549
vn -0.7850 -0.1557 0.5997
vn 0.2880 -0.9340 0.2117
vn 0.0056 0.9999 0.0099
vn 0.3636 -0.0217 -0.9313
vn 0.6138 -0.1562 -0.7738
vn -0.3294 0.9264 0.1824
vn -0.2290 0.9473 -0.2242
vn -0.7256 0.6296 -0.2777
vn -0.6902 -0.5191 0.5041
vn 0.6825 -0.1156 -0.7217
vn -0.4494 -0.8376 -0.3106
vn 0.0845 -0.5399 -0.8375
vt 0.104149 0.328010
vt 0.138806 0.325529
vt 0.140923 0.350172
vt 0.106134 0.346148
vt 0.952074 0.362947
vt 0.937841 0.374731
vt 0.936070 0.364284
vt 0.950303 0.352500
vt 0.124815 0.135163
vt 0.208177 0.152560
vt 0.202458 0.194336
vt 0.114670 0.179515
vt 0.196685 0.237436
vt 0.108284 0.225634
vt 0.256199 0.207677
vt 0.252359 0.242535
vt 0.106554 0.238466
vt 0.107461 0.272353
vt 0.161899 0.279275
vt 0.135960 0.303418
vt 0.926779 0.383889
vt 0.957633 0.397379
vt 0.924374 0.427701
vt 0.276746 0.306550
vt 0.275038 0.252607
vt 0.331296 0.249851
vt 0.329039 0.300447
vt 0.208620 0.396077
vt 0.194903 0.360673
vt 0.245554 0.349425
vt 0.258587 0.382928
vt 0.190834 0.281269
vt 0.245957 0.278365
vt 0.189643 0.323076
vt 0.241761 0.314480
vt 0.258587 0.170009
vt 0.590513 0.364764
vt 0.595321 0.393185
vt 0.521010 0.404937
vt 0.273454 0.202592
vt 0.271712 0.147567
vt 0.358146 0.157585
vt 0.344149 0.203331
vt 0.279912 0.406533
vt 0.278404 0.358910
vt 0.355555 0.400125
vt 0.281549 0.458222
vt 0.365177 0.447371
vt 0.416603 0.301729
vt 0.416811 0.268342
vt 0.427725 0.257103
vt 0.502533 0.263591
vt 0.426688 0.213950
vt 0.435763 0.384908
vt 0.443462 0.425663
vt 0.440382 0.173051
vt 0.346461 0.378780
vt 0.360166 0.350077
vt 0.425564 0.345482
vt 0.506038 0.336928
vt 0.499774 0.301456
vt 0.584931 0.299549
vt 0.586983 0.334046
vt 0.521003 0.190339
vt 0.510733 0.227462
vt 0.343799 0.119721
vt 0.333322 0.134698
vt 0.271933 0.134698
vt 0.275845 0.120291
vt 0.586499 0.264651
vt 0.672096 0.274471
vt 0.671756 0.301408
vt 0.590820 0.234105
vt 0.515045 0.377234
vt 0.524378 0.369502
vt 0.596483 0.205479
vt 0.356225 0.085501
vt 0.357055 0.065371
vt 0.371271 0.065576
vt 0.369888 0.081209
vt 0.672057 0.262983
vt 0.683065 0.249984
vt 0.775924 0.258636
vt 0.676698 0.223651
vt 0.671209 0.326589
vt 0.671496 0.350802
vt 0.673608 0.374743
vt 0.778528 0.235424
vt 0.876872 0.254700
vt 0.872627 0.271424
vt 0.771996 0.346262
vt 0.774416 0.368070
vt 0.672025 0.263064
vt 0.682928 0.249975
vt 0.770833 0.325355
vt 0.869354 0.323321
vt 0.869370 0.305666
vt 0.981970 0.311324
vt 0.981286 0.311912
vt 0.870373 0.340983
vt 0.770729 0.312262
vt 0.778755 0.303649
vt 0.773416 0.280972
vt 0.870317 0.288371
vt 0.873145 0.358416
vt 0.153470 0.811637
vt 0.144291 0.816662
vt 0.140998 0.781831
vt 0.145950 0.777268
vt 0.981219 0.312392
vt 0.981571 0.309692
vt 0.983107 0.309477
vt 0.986535 0.310886
vt 0.111597 0.383029
vt 0.139412 0.374522
vt 0.117880 0.399738
vt 0.963052 0.427701
vt 0.953747 0.424244
vt 0.168685 0.367373
vt 0.126243 0.410717
vt 0.136338 0.430107
vt 0.106431 0.359894
vt 0.123769 0.360663
vt 0.964968 0.367736
vt 0.963198 0.357289
vt 0.982858 0.374382
vt 0.993954 0.408463
vt 0.419944 0.242909
vt 0.405780 0.255321
vt 0.511778 0.362903
vt 0.507243 0.371461
vt 0.990641 0.261276
vt 0.953939 0.280078
vt 0.955401 0.270991
vt 0.970984 0.249472
vt 0.767346 0.303470
vt 0.771427 0.297874
vt 0.334237 0.335618
vt 0.325070 0.352877
vt 0.673933 0.240196
vt 0.668149 0.248190
vt 0.272952 0.082268
vt 0.284024 0.090192
vt 0.224074 0.098172
vt 0.211488 0.088112
vt 0.342911 0.080373
vt 0.341291 0.103266
vt 0.276557 0.102931
vt 0.323334 0.062667
vt 0.217706 0.121790
vt 0.215925 0.132187
vt 0.157001 0.124619
vt 0.159647 0.119962
vt 0.215925 0.110577
vt 0.152993 0.109716
vt 0.158949 0.108854
vt 0.157347 0.114661
vt 0.151538 0.114869
vt 0.155559 0.104032
vt 0.968937 0.186640
vt 0.979243 0.217346
vt 0.932081 0.218976
vt 0.927423 0.199004
vt 0.964193 0.165911
vt 0.986213 0.175912
vt 0.959805 0.173899
vt 0.990218 0.217836
vt 0.929915 0.238356
vt 0.923259 0.255240
vt 0.874576 0.239998
vt 0.875191 0.229327
vt 0.923749 0.187461
vt 0.877501 0.203259
vt 0.879559 0.207787
vt 0.839809 0.211212
vt 0.838330 0.208921
vt 0.879195 0.217960
vt 0.835861 0.220292
vt 0.833281 0.216607
vt 0.834038 0.214307
vt 0.838255 0.216162
vt 0.836744 0.224718
vt 0.370862 0.052674
vt 0.376947 0.042613
vt 0.427831 0.042855
vt 0.422909 0.054267
vt 0.356225 0.049091
vt 0.363591 0.038479
vt 0.365484 0.095877
vt 0.378426 0.088747
vt 0.420865 0.084365
vt 0.412100 0.079341
vt 0.463074 0.086080
vt 0.472156 0.091134
vt 0.417332 0.066397
vt 0.462789 0.071734
vt 0.491055 0.068089
vt 0.493435 0.073470
vt 0.462785 0.063539
vt 0.466792 0.058382
vt 0.493575 0.061961
vt 0.497116 0.065254
vt 0.488925 0.063217
vt 0.492744 0.060397
vt 0.496314 0.077639
vt 0.518203 0.118961
vt 0.516401 0.133726
vt 0.494849 0.136823
vt 0.493277 0.120269
vt 0.668384 0.248205
vt 0.673906 0.240112
vt 0.668307 0.248199
vt 0.504819 0.148490
vt 0.470852 0.146496
vt 0.471760 0.132558
vt 0.524359 0.151750
vt 0.510410 0.162216
vt 0.492538 0.153590
vt 0.512885 0.109366
vt 0.489652 0.109366
vt 0.469203 0.119904
vt 0.468977 0.125262
vt 0.443848 0.120190
vt 0.444358 0.113706
vt 0.464723 0.158600
vt 0.443560 0.132543
vt 0.442507 0.143752
vt 0.370317 0.132975
vt 0.368405 0.128406
vt 0.440312 0.152563
vt 0.366157 0.132417
vt 0.364739 0.130128
vt 0.368401 0.137355
vt 0.368542 0.124394
vt 0.369598 0.121723
vt 0.148007 0.723407
vt 0.153470 0.717252
vt 0.130182 0.814907
vt 0.117220 0.822178
vt 0.117080 0.778762
vt 0.132380 0.778241
vt 0.107938 0.815107
vt 0.105156 0.772389
vt 0.137690 0.723015
vt 0.136028 0.678764
vt 0.140983 0.676723
vt 0.127303 0.722556
vt 0.120930 0.716668
vt 0.124430 0.674449
vt 0.126341 0.670469
vt 0.131649 0.673067
vt 0.127754 0.679473
vt 0.144504 0.673712
s 1
usemtl uvgrid
f 1/1/1 67/2/2 65/3/3 63/4/4
f 3/5/5 63/6/6 70/7/7 71/8/8
f 5/9/9 6/10/10 8/11/11 7/12/12
f 7/12/12 8/11/11 10/13/13 9/14/14
f 10/13/13 8/11/11 16/15/15 17/16/16
f 9/14/14 10/13/13 66/17/17
f 11/18/18 68/19/19 69/20/20 1/1/1
f 1/21/21 63/6/6 75/22/21 11/23/21
f 18/24/22 17/25/16 22/26/23 23/27/24
f 6/28/10 4/29/25 13/30/26 15/31/27
f 12/32/28 10/13/13 17/16/16 18/33/22
f 4/29/25 2/34/29 14/35/30 13/30/26
f 8/11/11 6/10/10 15/36/27 16/15/15
f 2/34/29 12/32/28 18/33/22 14/35/30
f 34/37/31 36/38/32 30/39/33
f 16/40/15 15/41/27 20/42/34 21/43/35
f 13/44/26 14/45/30 19/46/36
f 14/45/30 18/24/22 23/27/24
f 17/25/16 16/40/15 21/43/35 22/26/23
f 15/47/27 13/44/26 19/46/36 20/48/34
f 28/49/37 77/50/38 76/51/39 32/52/40
f 22/26/23 21/43/35 27/53/41
f 20/48/34 19/46/36 24/54/42 26/55/43
f 21/43/35 20/42/34 26/56/43 27/53/41
f 19/46/36 81/57/44 80/58/45 25/59/46
f 29/60/47 33/61/48 39/62/49 35/63/50
f 27/53/41 26/56/43 30/64/33 31/65/51
f 25/59/46 28/49/37 33/61/48 29/60/47
f 77/66/52 78/67/53 99/68/54 98/69/55
f 26/55/43 24/54/42 30/39/33
f 39/62/49 38/70/56 43/71/57 44/72/58
f 32/52/40 31/65/51 37/73/59 38/70/56
f 30/39/33 84/74/60 85/75/61 34/37/31
f 33/61/48 32/52/40 38/70/56 39/62/49
f 31/65/51 30/64/33 36/76/32 37/73/59
f 87/77/62 85/78/63 126/79/64 127/80/65
f 43/71/57 89/81/66 91/82/67 48/83/68
f 37/73/59 36/76/32 42/84/69
f 34/37/31 35/63/50 41/85/70 40/86/71
f 35/63/50 39/62/49 44/72/58 41/85/70
f 38/70/56 37/73/59 43/71/57
f 36/38/32 34/37/31 40/86/71 42/87/69
f 48/83/68 47/88/72 52/89/73 53/90/74
f 42/87/69 40/86/71 45/91/75 47/92/72
f 91/82/67 89/81/66 141/93/76 142/94/76
f 40/86/71 41/85/70 46/95/77 45/91/75
f 41/85/70 44/72/58 46/95/77
f 51/96/78 55/97/79 61/98/80 57/99/81
f 45/91/75 46/95/77 51/96/78 50/100/82
f 46/95/77 92/101/83 95/102/84 55/97/79
f 49/103/85 48/83/68 53/90/74 54/104/86
f 47/92/72 45/91/75 50/100/82 52/105/73
f 93/106/87 94/107/88 163/108/89 160/109/90
f 56/110/91 57/99/81 61/98/80 60/111/92 59/112/93 58/113/94
f 54/104/86 53/90/74 59/112/93 60/111/92
f 52/105/73 50/100/82 56/110/91 58/113/94
f 55/97/79 54/104/86 60/111/92 61/98/80
f 53/90/74 52/89/73 58/113/94 59/112/93
f 50/100/82 51/96/78 57/99/81 56/110/91
f 71/114/95 72/115/96 73/116/97
f 11/23/21 75/22/21 9/117/21 66/118/21
f 62/119/98 64/120/99 73/116/97 72/115/96
f 64/120/100 62/119/101 4/29/25 6/28/10 5/121/9
f 65/3/3 2/34/29 4/29/25 62/119/101
f 66/17/17 68/19/19 11/18/102
f 67/2/2 69/20/20 2/34/29
f 1/1/1 69/20/20 67/2/2
f 2/34/29 69/20/20 68/19/19 12/32/28
f 2/34/29 65/3/3 67/2/2
f 70/122/103 74/123/104 72/115/96 71/114/95
f 65/3/105 62/119/98 72/115/96 74/123/104
f 63/4/106 65/3/105 74/123/104 70/122/103
f 64/124/107 3/5/5 71/8/8 73/125/108
f 66/17/17 10/13/13 12/32/28 68/19/19
f 75/22/21 63/6/6 3/5/5 64/124/107
f 9/117/21 75/22/21 5/126/21 7/127/21
f 64/124/107 5/126/21 75/22/21
f 55/97/79 51/96/78 46/95/77
f 76/51/39 79/128/109 27/53/41 32/52/40
f 27/53/41 79/128/109 78/129/110 22/26/23
f 34/37/31 29/60/47 35/63/50
f 29/60/47 87/130/111 86/131/112 24/54/42
f 81/132/113 83/133/114 109/134/115 110/135/116
f 46/95/77 44/72/58 93/136/117 92/101/83
f 49/103/85 94/137/118 93/136/117 44/72/58
f 80/58/45 82/138/119 23/27/24 25/59/46
f 28/49/37 22/26/23 78/129/110 77/50/38
f 32/52/40 27/53/41 31/65/51
f 85/75/61 87/130/111 29/60/47 34/37/31
f 30/39/33 24/54/42 86/131/112 84/74/60
f 19/46/36 14/45/30 83/139/120 81/57/44
f 91/82/67 90/140/121 42/84/69 48/83/68
f 48/83/68 49/103/85 44/72/58 43/71/57
f 32/52/40 33/61/48 28/49/37
f 23/27/24 82/138/119 83/139/120 14/45/30
f 25/59/46 29/60/47 24/54/42 19/46/36
f 95/102/84 94/137/118 49/103/85 55/97/79
f 23/27/24 22/26/23 28/49/37 25/59/46
f 55/97/79 49/103/85 54/104/86
f 43/71/57 37/73/59 88/141/122 89/81/66
f 42/84/69 90/140/121 88/141/122 37/73/59
f 48/83/68 42/84/69 47/88/72
f 99/142/54 96/143/123 100/144/124 103/145/125
f 79/146/126 76/147/127 97/148/128 96/143/123
f 78/149/53 79/146/126 96/143/123 99/142/54
f 76/147/127 77/66/52 98/69/55 97/148/128
f 102/150/129 103/151/125 107/152/130 106/153/131
f 97/148/128 98/69/55 102/150/129 101/154/132
f 98/69/55 99/68/54 103/151/125 102/150/129
f 96/143/123 97/148/128 101/154/132 100/144/124
f 107/155/130 104/156/133 105/157/134 106/158/131
f 100/144/124 101/154/132 105/157/134 104/156/133
f 103/145/125 100/144/124 104/156/133 107/159/130
f 101/154/132 102/150/129 106/153/131 105/157/134
f 108/160/135 111/161/136 115/162/137 112/163/138
f 83/164/114 82/165/139 108/160/135 109/166/115
f 82/165/139 80/167/140 111/161/136 108/160/135
f 80/167/140 81/132/113 110/135/116 111/161/136
f 114/168/141 113/169/142 117/170/143 118/171/144
f 111/161/136 110/135/116 114/168/141 115/162/137
f 110/135/116 109/134/115 113/169/142 114/168/141
f 109/166/115 108/160/135 112/163/138 113/172/142
f 117/173/143 116/174/145 120/175/146 121/176/147
f 113/172/142 112/163/138 116/174/145 117/173/143
f 112/163/138 115/162/137 119/177/148 116/174/145
f 115/162/137 114/168/141 118/171/144 119/177/148
f 122/178/149 121/179/147 120/180/146 123/181/150
f 116/174/145 119/177/148 123/181/150 120/175/146
f 119/177/148 118/171/144 122/178/149 123/181/150
f 118/171/144 117/170/143 121/182/147 122/178/149
f 125/183/151 124/184/152 128/185/153 129/186/154
f 84/187/155 86/188/156 124/184/152 125/183/151
f 86/189/156 87/77/62 127/80/65 124/190/152
f 85/78/63 84/187/155 125/183/151 126/79/64
f 128/191/153 131/192/157 135/193/158 132/194/159
f 124/190/152 127/80/65 131/192/157 128/191/153
f 126/79/64 125/183/151 129/186/154 130/195/160
f 127/80/65 126/79/64 130/195/160 131/192/157
f 135/193/158 134/196/161 138/197/162 139/198/163
f 130/195/160 129/186/154 133/199/164 134/196/161
f 131/192/157 130/195/160 134/196/161 135/193/158
f 129/186/154 128/185/153 132/200/159 133/199/164
f 136/201/165 139/202/163 138/197/162 137/203/166
f 133/199/164 132/200/159 136/204/165 137/203/166
f 132/194/159 135/193/158 139/198/163 136/205/165
f 134/196/161 133/199/164 137/203/166 138/197/162
f 143/206/167 142/207/168 146/208/169 147/209/170
f 89/81/66 88/141/122 140/210/76 141/93/76
f 88/141/122 90/140/121 143/211/76 140/212/76
f 90/140/121 91/82/67 142/94/76 143/211/76
f 146/208/169 145/213/171 149/214/172 150/215/173
f 142/207/168 141/216/174 145/213/171 146/208/169
f 141/216/174 140/217/175 144/218/176 145/213/171
f 140/219/175 143/206/167 147/209/170 144/220/176
f 148/221/177 151/222/178 155/223/179 152/224/180
f 145/213/171 144/218/176 148/225/177 149/214/172
f 144/220/176 147/209/170 151/222/178 148/221/177
f 147/209/170 146/208/169 150/215/173 151/222/178
f 154/226/181 153/227/182 157/228/183 158/229/184
f 151/222/178 150/215/173 154/226/181 155/223/179
f 150/215/173 149/214/172 153/227/182 154/226/181
f 149/214/172 148/225/177 152/230/180 153/227/182
f 156/231/185 159/232/186 158/229/184 157/228/183
f 153/227/182 152/230/180 156/233/185 157/228/183
f 152/224/180 155/223/179 159/234/186 156/235/185
f 155/223/179 154/226/181 158/229/184 159/234/186
f 160/109/90 163/108/89 167/236/187 164/237/188
f 95/238/189 92/239/190 161/240/191 162/241/192
f 94/107/88 95/238/189 162/241/192 163/108/89
f 92/239/190 93/242/87 160/243/90 161/240/191
f 167/236/187 166/244/193 170/245/194 171/246/195
f 162/241/192 161/240/191 165/247/196 166/244/193
f 163/108/89 162/241/192 166/244/193 167/236/187
f 161/240/191 160/243/90 164/248/188 165/247/196
f 168/249/197 171/250/195 170/251/194 169/252/198
f 165/247/196 164/248/188 168/249/197 169/252/198
f 164/237/188 167/236/187 171/246/195 168/253/197
f 166/244/193 165/247/196 169/252/198 170/245/194
