# Blender 4.2.2 LTS
# www.blender.org
mtllib pajukori.mtl
o Cylinder
v -0.000000 -0.051864 -5.579579
v 0.301935 -0.051864 -5.516626
v 0.557903 -0.051864 -5.337351
v 0.728936 -0.051864 -5.069047
v 0.788994 -0.051864 -4.752561
v 0.728936 -0.051864 -4.436075
v 0.557903 -0.051864 -4.167771
v 0.301935 -0.051864 -3.988497
v -0.000000 -0.051864 -3.925544
v -0.301935 -0.051864 -3.988497
v -0.557903 -0.051864 -4.167771
v -0.728936 -0.051864 -4.436075
v -0.788994 -0.051864 -4.752561
v -0.728936 -0.051864 -5.069047
v -0.557903 -0.051864 -5.337351
v -0.301935 -0.051864 -5.516626
v -0.000000 -0.051864 -5.663758
v 0.332668 -0.051864 -5.594397
v 0.614690 -0.051864 -5.396874
v 0.803131 -0.051864 -5.101261
v 0.869303 -0.051864 -4.752561
v 0.803131 -0.051864 -4.403862
v 0.614690 -0.051864 -4.108248
v 0.332668 -0.051864 -3.910725
v -0.000000 -0.051864 -3.841364
v -0.332668 -0.051864 -3.910725
v -0.614690 -0.051864 -4.108248
v -0.803131 -0.051864 -4.403862
v -0.869303 -0.051864 -4.752561
v -0.803131 -0.051864 -5.101261
v -0.614690 -0.051864 -5.396874
v -0.332668 -0.051864 -5.594397
v 0.451375 0.415601 -5.894794
v 0.459291 0.398151 -5.914824
v 0.000000 0.355236 -6.010585
v 0.000000 0.373269 -5.988905
v 0.834033 0.436778 -5.626788
v 0.848658 0.418324 -5.642118
v 1.089717 0.436778 -5.225689
v 1.108826 0.418324 -5.233986
v 1.179501 0.436778 -4.752561
v 1.200184 0.418324 -4.752561
v 1.089717 0.436778 -4.279433
v 1.108826 0.418324 -4.271136
v 0.834033 0.434946 -3.878334
v 0.848658 0.417015 -3.863004
v 0.451375 0.374494 -3.610329
v 0.459291 0.356911 -3.590299
v 0.000000 0.374494 -3.516218
v 0.000000 0.356911 -3.494538
v -0.451375 0.434946 -3.610329
v -0.459291 0.417015 -3.590299
v -0.834033 0.436778 -3.878334
v -0.848658 0.418324 -3.863004
v -1.089717 0.436778 -4.279433
v -1.108826 0.418324 -4.271136
v -1.179501 0.436778 -4.752561
v -1.200184 0.418324 -4.752561
v -1.089717 0.436778 -5.225689
v -1.108826 0.418324 -5.233986
v -0.834033 0.415601 -5.626788
v -0.848658 0.398151 -5.642118
v -0.451375 0.373269 -5.894794
v -0.459291 0.355235 -5.914824
v 0.000000 0.373269 -5.918708
v 0.000000 0.347606 -5.859088
v 0.403981 0.385408 -5.774858
v 0.425748 0.413387 -5.829941
v 0.746459 0.409471 -5.534994
v 0.786679 0.436778 -5.577152
v 0.975296 0.409471 -5.176011
v 1.027846 0.436778 -5.198826
v 1.055652 0.409471 -4.752561
v 1.112532 0.436778 -4.752561
v 0.975296 0.409471 -4.329112
v 1.027846 0.436778 -4.306296
v 0.746459 0.405750 -3.970129
v 0.786679 0.433545 -3.927971
v 0.403981 0.350535 -3.730264
v 0.425748 0.374494 -3.675182
v 0.000000 0.350535 -3.646035
v 0.000000 0.374494 -3.586414
v -0.403981 0.405750 -3.730264
v -0.425748 0.433545 -3.675182
v -0.746459 0.409471 -3.970129
v -0.786679 0.436778 -3.927971
v -0.975296 0.409471 -4.329112
v -1.027846 0.436778 -4.306296
v -1.055652 0.409471 -4.752561
v -1.112532 0.436778 -4.752561
v -0.975296 0.409471 -5.176011
v -1.027846 0.436778 -5.198826
v -0.746459 0.385408 -5.534994
v -0.786679 0.413387 -5.577152
v -0.403981 0.347606 -5.774858
v -0.425748 0.373269 -5.829941
vn -0.0175 0.3597 0.9329
vn -0.4020 0.3286 0.8547
vn -0.6967 0.3053 0.6492
vn -0.8875 0.2999 0.3498
vn -0.9540 0.2998 -0.0000
vn -0.8878 0.3007 -0.3483
vn -0.7045 0.3151 -0.6359
vn -0.3965 0.3509 -0.8483
vn 0.0250 0.3516 -0.9358
vn 0.4023 0.3156 -0.8594
vn 0.6920 0.3009 -0.6563
vn 0.8875 0.2999 -0.3498
vn 0.9540 0.2998 -0.0000
vn 0.8895 0.3051 0.3403
vn 0.7024 0.3279 0.6317
vn 0.3886 0.3590 0.8486
vn 0.0109 -0.8842 -0.4669
vn 0.2078 -0.8748 -0.4377
vn 0.3634 -0.8678 -0.3389
vn 0.4661 -0.8655 -0.1835
vn 0.5018 -0.8650 -0.0000
vn 0.4661 -0.8656 0.1832
vn 0.3673 -0.8701 0.3288
vn 0.2020 -0.8820 0.4258
vn -0.0151 -0.8828 0.4696
vn -0.2097 -0.8715 0.4433
vn -0.3616 -0.8669 0.3432
vn -0.4661 -0.8655 0.1835
vn -0.5018 -0.8650 -0.0000
vn -0.4661 -0.8665 -0.1786
vn -0.3634 -0.8733 -0.3244
vn -0.1971 -0.8835 -0.4249
vn 0.0902 0.9296 -0.3574
vn 0.3768 0.1123 -0.9195
vn -0.0097 0.0645 -0.9979
vn -0.0419 0.9231 -0.3823
vn 0.2594 0.9266 -0.2722
vn 0.7115 0.1173 -0.6928
vn 0.3640 0.9204 -0.1429
vn 0.9235 0.1062 -0.3686
vn 0.3922 0.9199 -0.0000
vn 0.9943 0.1062 -0.0000
vn 0.3594 0.9222 0.1424
vn 0.9232 0.1085 0.3686
vn 0.2224 0.9306 0.2906
vn 0.7010 0.1338 0.7005
vn 0.1008 0.9215 0.3750
vn 0.3830 0.0627 0.9216
vn 0.0586 0.9213 0.3844
vn 0.0123 0.0615 0.9980
vn -0.0900 0.9314 0.3526
vn -0.3745 0.1337 0.9175
vn -0.2777 0.9235 0.2648
vn -0.7157 0.1084 0.6900
vn -0.3640 0.9204 0.1429
vn -0.9235 0.1062 0.3686
vn -0.3922 0.9199 -0.0000
vn -0.9943 0.1062 -0.0000
vn -0.3455 0.9254 -0.1558
vn -0.9205 0.1171 -0.3727
vn -0.2246 0.9288 -0.2949
vn -0.7038 0.1127 -0.7014
vn -0.1153 0.9231 -0.3670
vn -0.3852 0.0653 -0.9205
vn -0.0466 0.9831 0.1771
vn -0.0329 0.7865 0.6168
vn -0.3003 0.7704 0.5624
vn -0.1433 0.9772 0.1565
vn -0.4829 0.7595 0.4358
vn -0.1614 0.9792 0.1228
vn -0.6112 0.7536 0.2421
vn -0.1810 0.9808 0.0724
vn -0.6597 0.7515 -0.0000
vn -0.1965 0.9805 -0.0000
vn -0.6124 0.7533 -0.2398
vn -0.1858 0.9800 -0.0717
vn -0.4987 0.7649 -0.4076
vn -0.1940 0.9765 -0.0940
vn -0.2884 0.7870 -0.5453
vn -0.1271 0.9837 -0.1273
vn 0.0483 0.7898 -0.6115
vn 0.0671 0.9842 -0.1640
vn 0.2998 0.7703 -0.5628
vn 0.1418 0.9773 -0.1572
vn 0.4729 0.7584 -0.4486
vn 0.1423 0.9807 -0.1340
vn 0.6112 0.7536 -0.2421
vn 0.1810 0.9808 -0.0724
vn 0.6597 0.7515 -0.0000
vn 0.1965 0.9805 -0.0000
vn 0.6167 0.7545 0.2245
vn 0.1989 0.9785 0.0544
vn 0.4991 0.7650 0.4070
vn 0.1952 0.9764 0.0928
vn 0.2764 0.7839 0.5560
vn 0.1134 0.9826 0.1471
vt 0.257078 0.336946
vt 0.166268 0.336946
vt 0.166268 0.278937
vt 0.257078 0.278937
vt 0.026562 0.732016
vt 0.026562 0.678283
vt 0.109150 0.678283
vt 0.109150 0.732016
vt 0.026562 0.786416
vt 0.109150 0.786416
vt 0.026562 0.840816
vt 0.109150 0.840816
vt 0.026562 0.894550
vt 0.109150 0.894550
vt 0.026562 0.094605
vt 0.026562 0.041503
vt 0.109150 0.041503
vt 0.109150 0.094605
vt 0.026562 0.146691
vt 0.109150 0.146691
vt 0.026562 0.199108
vt 0.109150 0.199108
vt 0.026562 0.251883
vt 0.109150 0.251883
vt 0.026562 0.305616
vt 0.109150 0.305616
vt 0.026562 0.360016
vt 0.109150 0.360016
vt 0.026562 0.414417
vt 0.109150 0.414417
vt 0.026562 0.468196
vt 0.109150 0.468196
vt 0.026562 0.521129
vt 0.109150 0.521129
vt 0.026562 0.625461
vt 0.109150 0.625461
vt 0.489338 0.681311
vt 0.525747 0.681967
vt 0.559386 0.697129
vt 0.585131 0.724486
vt 0.599064 0.759876
vt 0.599065 0.797910
vt 0.585131 0.832798
vt 0.559386 0.859228
vt 0.525747 0.873177
vt 0.489338 0.872521
vt 0.455700 0.857360
vt 0.429954 0.830002
vt 0.416021 0.794612
vt 0.416021 0.756578
vt 0.429954 0.721690
vt 0.455700 0.695260
vt 0.257078 0.394322
vt 0.166268 0.394322
vt 0.257078 0.451521
vt 0.166268 0.451521
vt 0.257078 0.219929
vt 0.166268 0.219929
vt 0.166268 0.160187
vt 0.257078 0.160187
vt 0.166268 0.100445
vt 0.257078 0.100445
vt 0.166268 0.041436
vt 0.257078 0.041436
vt 0.257078 0.978239
vt 0.166268 0.978239
vt 0.166268 0.919924
vt 0.257078 0.919924
vt 0.166268 0.862724
vt 0.257078 0.862724
vt 0.166268 0.805160
vt 0.257078 0.805160
vt 0.166268 0.747203
vt 0.257078 0.747203
vt 0.166268 0.688195
vt 0.257078 0.688195
vt 0.166268 0.628453
vt 0.257078 0.628453
vt 0.166268 0.568711
vt 0.257078 0.568711
vt 0.166268 0.509651
vt 0.257078 0.509651
vt 0.480792 0.897417
vt 0.526553 0.898241
vt 0.528882 0.910514
vt 0.478463 0.909605
vt 0.438515 0.878362
vt 0.431883 0.888611
vt 0.406157 0.843978
vt 0.396231 0.850727
vt 0.388645 0.799499
vt 0.376937 0.801721
vt 0.388645 0.751697
vt 0.376937 0.749053
vt 0.406157 0.707849
vt 0.396231 0.700742
vt 0.438515 0.674631
vt 0.431882 0.664143
vt 0.480792 0.657100
vt 0.478463 0.644828
vt 0.526553 0.657925
vt 0.528882 0.645736
vt 0.568830 0.676979
vt 0.575462 0.666730
vt 0.601188 0.711363
vt 0.611113 0.704614
vt 0.618700 0.755842
vt 0.630408 0.753620
vt 0.618700 0.803644
vt 0.630408 0.806288
vt 0.601188 0.847492
vt 0.611114 0.854599
vt 0.568830 0.880710
vt 0.575462 0.891198
vt 0.340399 0.802203
vt 0.365199 0.865224
vt 0.356850 0.870861
vt 0.330615 0.804075
vt 0.410691 0.914113
vt 0.405015 0.922648
vt 0.470722 0.941921
vt 0.468654 0.952242
vt 0.026562 0.573215
vt 0.109150 0.573215
vt 0.535962 0.943076
vt 0.538030 0.953531
vt 0.595853 0.917418
vt 0.641048 0.870469
vt 0.649355 0.876359
vt 0.601511 0.926119
vt 0.665590 0.808678
vt 0.675429 0.810884
vt 0.665637 0.741026
vt 0.675387 0.739185
vt 0.640920 0.678022
vt 0.649286 0.672375
vt 0.595778 0.629550
vt 0.601379 0.621104
vt 0.535546 0.601399
vt 0.537693 0.591001
vt 0.469866 0.600036
vt 0.467853 0.589480
vt 0.409483 0.624938
vt 0.403942 0.616290
vt 0.364662 0.671933
vt 0.356255 0.666022
vt 0.340265 0.734284
vt 0.330382 0.732114
vt 0.603650 0.929707
vt 0.538730 0.957730
vt 0.652807 0.878837
vt 0.679553 0.811785
vt 0.679553 0.738399
vt 0.652803 0.670022
vt 0.603577 0.617545
vt 0.538385 0.586849
vt 0.467243 0.585311
vt 0.401790 0.612653
vt 0.352738 0.663585
vt 0.326244 0.731229
vt 0.326434 0.804875
vt 0.353362 0.873258
vt 0.402842 0.926186
vt 0.467923 0.956436
vt 0.533896 0.933598
vt 0.590345 0.909489
vt 0.633224 0.865089
vt 0.656390 0.806635
vt 0.656341 0.742781
vt 0.633108 0.683240
vt 0.590295 0.637264
vt 0.533384 0.610867
vt 0.471899 0.609473
vt 0.414880 0.632790
vt 0.372509 0.677377
vt 0.349529 0.736308
vt 0.349701 0.800432
vt 0.373080 0.860055
vt 0.416280 0.906228
vt 0.472782 0.932407
s 1
usemtl pajukoriMat
f 18/1/18 34/2/34 38/3/38 19/4/19
f 71/5/71 69/6/69 3/7/3 4/8/4
f 73/9/73 71/5/71 4/8/4 5/10/5
f 75/11/75 73/9/73 5/10/5 6/12/6
f 77/13/77 75/11/75 6/12/6 7/14/7
f 79/15/79 77/16/77 7/17/7 8/18/8
f 81/19/81 79/15/79 8/18/8 9/20/9
f 83/21/83 81/19/81 9/20/9 10/22/10
f 85/23/85 83/21/83 10/22/10 11/24/11
f 87/25/87 85/23/85 11/24/11 12/26/12
f 89/27/89 87/25/87 12/26/12 13/28/13
f 91/29/91 89/27/89 13/28/13 14/30/14
f 93/31/93 91/29/91 14/30/14 15/32/15
f 95/33/95 93/31/93 15/32/15 16/34/16
f 69/6/69 67/35/67 2/36/2 3/7/3
f 1/37/1 16/38/16 15/39/15 14/40/14 13/41/13 12/42/12 11/43/11 10/44/10 9/45/9 8/46/8 7/47/7 6/48/6 5/49/5 4/50/4 3/51/3 2/52/2
f 17/53/17 35/54/35 34/2/34 18/1/18
f 32/55/32 64/56/64 35/54/35 17/53/17
f 20/57/20 40/58/40 42/59/42 21/60/21
f 21/60/21 42/59/42 44/61/44 22/62/22
f 22/62/22 44/61/44 46/63/46 23/64/23
f 23/65/23 46/66/46 48/67/48 24/68/24
f 24/68/24 48/67/48 50/69/50 25/70/25
f 25/70/25 50/69/50 52/71/52 26/72/26
f 26/72/26 52/71/52 54/73/54 27/74/27
f 27/74/27 54/73/54 56/75/56 28/76/28
f 28/76/28 56/75/56 58/77/58 29/78/29
f 29/78/29 58/77/58 60/79/60 30/80/30
f 30/80/30 60/79/60 62/81/62 31/82/31
f 31/82/31 62/81/62 64/56/64 32/55/32
f 19/4/19 38/3/38 40/58/40 20/57/20
f 2/83/2 1/84/1 17/85/17 18/86/18
f 3/87/3 2/83/2 18/86/18 19/88/19
f 4/89/4 3/87/3 19/88/19 20/90/20
f 5/91/5 4/89/4 20/90/20 21/92/21
f 6/93/6 5/91/5 21/92/21 22/94/22
f 7/95/7 6/93/6 22/94/22 23/96/23
f 8/97/8 7/95/7 23/96/23 24/98/24
f 9/99/9 8/97/8 24/98/24 25/100/25
f 10/101/10 9/99/9 25/100/25 26/102/26
f 11/103/11 10/101/10 26/102/26 27/104/27
f 12/105/12 11/103/11 27/104/27 28/106/28
f 13/107/13 12/105/12 28/106/28 29/108/29
f 14/109/14 13/107/13 29/108/29 30/110/30
f 15/111/15 14/109/14 30/110/30 31/112/31
f 16/113/16 15/111/15 31/112/31 32/114/32
f 1/84/1 16/113/16 32/114/32 17/85/17
f 90/115/90 92/116/92 59/117/59 57/118/57
f 92/116/92 94/119/94 61/120/61 59/117/59
f 94/119/94 96/121/96 63/122/63 61/120/61
f 67/35/67 66/123/66 1/124/1 2/36/2
f 96/121/96 65/125/65 36/126/36 63/122/63
f 68/127/68 70/128/70 37/129/37 33/130/33
f 70/128/70 72/131/72 39/132/39 37/129/37
f 72/131/72 74/133/74 41/134/41 39/132/39
f 74/133/74 76/135/76 43/136/43 41/134/41
f 76/135/76 78/137/78 45/138/45 43/136/43
f 78/137/78 80/139/80 47/140/47 45/138/45
f 80/139/80 82/141/82 49/142/49 47/140/47
f 82/141/82 84/143/84 51/144/51 49/142/49
f 84/143/84 86/145/86 53/146/53 51/144/51
f 86/145/86 88/147/88 55/148/55 53/146/53
f 88/147/88 90/115/90 57/118/57 55/148/55
f 34/149/34 35/150/35 36/126/36 33/130/33
f 38/151/38 34/149/34 33/130/33 37/129/37
f 40/152/40 38/151/38 37/129/37 39/132/39
f 42/153/42 40/152/40 39/132/39 41/134/41
f 44/154/44 42/153/42 41/134/41 43/136/43
f 46/155/46 44/154/44 43/136/43 45/138/45
f 48/156/48 46/155/46 45/138/45 47/140/47
f 50/157/50 48/156/48 47/140/47 49/142/49
f 52/158/52 50/157/50 49/142/49 51/144/51
f 54/159/54 52/158/52 51/144/51 53/146/53
f 56/160/56 54/159/54 53/146/53 55/148/55
f 58/161/58 56/160/56 55/148/55 57/118/57
f 60/162/60 58/161/58 57/118/57 59/117/59
f 62/163/62 60/162/60 59/117/59 61/120/61
f 64/164/64 62/163/62 61/120/61 63/122/63
f 35/150/35 64/164/64 63/122/63 36/126/36
f 66/123/66 95/33/95 16/34/16 1/124/1
f 68/127/68 65/125/65 66/165/66 67/166/67
f 70/128/70 68/127/68 67/166/67 69/167/69
f 72/131/72 70/128/70 69/167/69 71/168/71
f 74/133/74 72/131/72 71/168/71 73/169/73
f 76/135/76 74/133/74 73/169/73 75/170/75
f 78/137/78 76/135/76 75/170/75 77/171/77
f 80/139/80 78/137/78 77/171/77 79/172/79
f 82/141/82 80/139/80 79/172/79 81/173/81
f 84/143/84 82/141/82 81/173/81 83/174/83
f 86/145/86 84/143/84 83/174/83 85/175/85
f 88/147/88 86/145/86 85/175/85 87/176/87
f 90/115/90 88/147/88 87/176/87 89/177/89
f 92/116/92 90/115/90 89/177/89 91/178/91
f 94/119/94 92/116/92 91/178/91 93/179/93
f 96/121/96 94/119/94 93/179/93 95/180/95
f 65/125/65 96/121/96 95/180/95 66/165/66
f 65/125/65 68/127/68 33/130/33 36/126/36
